{"title":"20141005 - Share The Story - Hearing God's Voice - by Jeff Littl","uid":11171092,"size":293416653,"categoryP":"video","categoryS":"other","magnet":"?xt=urn:btih:a196b204b3b07f9d3108ef4a22592ec970f8211d&amp;dn=20141005+-+Share+The+Story+-+Hearing+God%27s+Voice+-+by+Jeff+Littl&amp;tr=udp%3A%2F%2Ftracker.openbittorrent.com%3A80&amp;tr=udp%3A%2F%2Fopen.demonii.com%3A1337&amp;tr=udp%3A%2F%2Ftracker.coppersurfer.tk%3A6969&amp;tr=udp%3A%2F%2Fexodus.desync.com%3A6969","seeders":2,"leechers":0,"uploader":"davidrpeet","files":1,"time":1412708258,"description":"Share The Story: Hearing God's Voice - Jeff Little\nWeekly sermons from CrossRoads Church in Decatur, Texas.\n\n\nGeneral\nFormat                                   : MPEG-4\nFormat profile                           : Base Media / Version 2\nCodec ID                                 : mp42\nFile size                                : 280 MiB\nDuration                                 : 47mn 51s\nOverall bit rate mode                    : Variable\nOverall bit rate                         : 817 Kbps\nMovie name                               : Share The Story: Hearing God's Voice\nAlbum                                    : CrossRoads Church \nAlbum/Performer                          : Darren Embree\nPerformer                                : Jeff Little\nComposer                                 : http://crossroadspeople.com/\nGenre                                    : Speech\nRecorded date                            : 2014\nEncoded date                             : UTC 2014-10-07 15:28:39\nTagged date                              : UTC 2014-10-07 15:28:39\nCover                                    : Yes\nComment                                  : CrossRoads To Go Video Podcasts\n\nVideo\nID                                       : 1\nFormat                                   : AVC\nFormat/Info                              : Advanced Video Codec\nFormat profile                           : &lt;a class=&quot;__cf_email__&quot; href=&quot;/cdn-cgi/l/email-protection&quot; data-cfemail=&quot;2860414f4068641b0619&quot;&gt;[email&amp;#160;protected]&lt;/a&gt;&lt;script cf-hash='f9e31' type=&quot;text/javascript&quot;&gt;\n/* &lt;![CDATA[ */!function(){try{var t=&quot;currentScript&quot;in document?document.currentScript:function(){for(var t=document.getElementsByTagName(&quot;script&quot;),e=t.length;e--;)if(t[e].getAttribute(&quot;cf-hash&quot;))return t[e]}();if(t&amp;&amp;t.previousSibling){var e,r,n,i,c=t.previousSibling,a=c.getAttribute(&quot;data-cfemail&quot;);if(a){for(e=&quot;&quot;,r=parseInt(a.substr(0,2),16),n=2;a.length-n;n+=2)i=parseInt(a.substr(n,2),16)^r,e+=String.fromCharCode(i);e=document.createTextNode(e),c.parentNode.replaceChild(e,c)}}}catch(u){}}();/* ]]&gt; */&lt;/script&gt;\nFormat settings, CABAC                   : Yes\nFormat settings, ReFrames                : 4 frames\nCodec ID                                 : avc1\nCodec ID/Info                            : Advanced Video Coding\nDuration                                 : 47mn 51s\nBit rate                                 : 710 Kbps\nWidth                                    : 640 pixels\nHeight                                   : 360 pixels\nDisplay aspect ratio                     : 16:9\nFrame rate mode                          : Constant\nFrame rate                               : 29.970 fps\nColor space                              : YUV\nChroma subsampling                       : 4:2:0\nBit depth                                : 8 bits\nScan type                                : Progressive\nBits/(Pixel*Frame)                       : 0.103\nStream size                              : 243 MiB (87%)\nWriting library                          : x264 core 142 r2453 ea0ca51\nEncoded date                             : UTC 2014-10-07 15:28:39\nTagged date                              : UTC 2014-10-07 15:28:39\n\nAudio\nID                                       : 2\nFormat                                   : AAC\nFormat/Info                              : Advanced Audio Codec\nFormat profile                           : LC\nCodec ID                                 : 40\nDuration                                 : 47mn 51s\nBit rate mode                            : Variable\nBit rate                                 : 103 Kbps\nChannel(s)                               : 2 channels\nChannel positions                        : Front: L R\nSampling rate                            : 48.0 KHz\nCompression mode                         : Lossy\nStream size                              : 35.2 MiB (13%)\nEncoded date                             : UTC 2014-10-07 15:28:39\nTagged date                              : UTC 2014-10-07 15:28:39\n","torrent":{"xt":"urn:btih:a196b204b3b07f9d3108ef4a22592ec970f8211d","amp;dn":"20141005+-+Share+The+Story+-+Hearing+God%27s+Voice+-+by+Jeff+Littl","amp;tr":["udp%3A%2F%2Ftracker.openbittorrent.com%3A80","udp%3A%2F%2Fopen.demonii.com%3A1337","udp%3A%2F%2Ftracker.coppersurfer.tk%3A6969","udp%3A%2F%2Fexodus.desync.com%3A6969"],"infoHash":"a196b204b3b07f9d3108ef4a22592ec970f8211d","infoHashBuffer":{"type":"Buffer","data":[161,150,178,4,179,176,127,157,49,8,239,74,34,89,46,201,112,248,33,29]},"announce":[],"urlList":[]}}